<mxfile host="65bd71144e">
    <diagram id="WesAnderson-Flowchart" name="Simulation-Flow">
        <mxGraphModel dx="1884" dy="1113" grid="1" gridSize="10" guides="1" tooltips="1" connect="1" arrows="1" fold="1" page="1" pageScale="1" pageWidth="1200" pageHeight="1400" background="#F3F2EE" math="0" shadow="0">
            <root>
                <mxCell id="0"/>
                <mxCell id="1" parent="0"/>
                <mxCell id="start-node" value="INICIO" style="ellipse;whiteSpace=wrap;html=1;fillColor=#9C2B2B;fontColor=#ffffff;strokeColor=#691D1D;strokeWidth=2;shadow=1;" parent="1" vertex="1">
                    <mxGeometry x="540" y="20" width="120" height="60" as="geometry"/>
                </mxCell>
                <mxCell id="init-env" value="Inicializar Entorno de Simulaci贸n&lt;br&gt;(env = SimPy.Environment)" style="rounded=0;whiteSpace=wrap;html=1;fillColor=#B3D9E6;strokeColor=#7E9AA3;strokeWidth=2;shadow=1;" parent="1" vertex="1">
                    <mxGeometry x="480" y="120" width="240" height="60" as="geometry"/>
                </mxCell>
                <mxCell id="arrow-1" value="" style="endArrow=classic;html=1;rounded=0;strokeWidth=2;strokeColor=#333333;" parent="1" source="start-node" target="init-env" edge="1">
                    <mxGeometry width="50" height="50" relative="1" as="geometry">
                        <mxPoint x="600" y="90" as="sourcePoint"/>
                        <mxPoint x="600" y="130" as="targetPoint"/>
                    </mxGeometry>
                </mxCell>
                <mxCell id="create-entities" value="Crear Entidades y Procesos Concurrentes" style="shape=process;whiteSpace=wrap;html=1;backgroundOutline=1;fillColor=#B3D9E6;strokeColor=#7E9AA3;strokeWidth=2;shadow=1;" parent="1" vertex="1">
                    <mxGeometry x="450" y="220" width="300" height="70" as="geometry"/>
                </mxCell>
                <mxCell id="arrow-2" value="" style="endArrow=classic;html=1;rounded=0;strokeWidth=2;strokeColor=#333333;" parent="1" source="init-env" target="create-entities" edge="1">
                    <mxGeometry width="50" height="50" relative="1" as="geometry">
                        <mxPoint x="600" y="190" as="sourcePoint"/>
                        <mxPoint x="600" y="230" as="targetPoint"/>
                    </mxGeometry>
                </mxCell>
                <mxCell id="sim-loop-container" value="Bucle Principal de Simulaci贸n" style="rounded=1;whiteSpace=wrap;html=1;dashed=1;strokeColor=#333333;fillColor=none;align=center;verticalAlign=top;spacingTop=5;" parent="1" vertex="1">
                    <mxGeometry x="170" y="320" width="860" height="320" as="geometry"/>
                </mxCell>
                <mxCell id="3" value="" style="edgeStyle=none;html=1;" edge="1" parent="1" source="hub-resource" target="create-entities">
                    <mxGeometry relative="1" as="geometry"/>
                </mxCell>
                <mxCell id="hub-resource" value="Planta de Almacenamiento&lt;br&gt;(Hub)" style="shape=cylinder3;whiteSpace=wrap;html=1;boundedLbl=1;backgroundOutline=1;size=15;fillColor=#F3D98A;strokeColor=#C0A04C;strokeWidth=2;shadow=1;" parent="1" vertex="1">
                    <mxGeometry x="520" y="380" width="160" height="100" as="geometry"/>
                </mxCell>
                <mxCell id="truck-process" value="Proceso: Ciclo de Transporte de Camiones (N)" style="shape=process;whiteSpace=wrap;html=1;backgroundOutline=1;fillColor=#A0C4B8;strokeColor=#6E8B80;strokeWidth=2;shadow=1;" parent="1" vertex="1">
                    <mxGeometry x="260" y="490" width="160" height="80" as="geometry"/>
                </mxCell>
                <mxCell id="demand-process" value="Proceso: Generaci贸n de Demanda" style="shape=process;whiteSpace=wrap;html=1;backgroundOutline=1;fillColor=#A0C4B8;strokeColor=#6E8B80;strokeWidth=2;shadow=1;" parent="1" vertex="1">
                    <mxGeometry x="780" y="490" width="160" height="80" as="geometry"/>
                </mxCell>
                <mxCell id="monitor-process" value="Proceso: Monitoreo de Estado" style="shape=process;whiteSpace=wrap;html=1;backgroundOutline=1;fillColor=#A0C4B8;strokeColor=#6E8B80;strokeWidth=2;shadow=1;" parent="1" vertex="1">
                    <mxGeometry x="520" y="530" width="160" height="80" as="geometry"/>
                </mxCell>
                <mxCell id="supplier-resource" value="Proveedor Externo" style="shape=cylinder3;whiteSpace=wrap;html=1;boundedLbl=1;backgroundOutline=1;size=15;fillColor=#F3D98A;strokeColor=#C0A04C;strokeWidth=2;shadow=1;" parent="1" vertex="1">
                    <mxGeometry x="260" y="360" width="160" height="80" as="geometry"/>
                </mxCell>
                <mxCell id="arrow-setup-truck" value="" style="endArrow=classic;html=1;rounded=0;strokeWidth=2;strokeColor=#333333;edgeStyle=orthogonalEdgeStyle;" parent="1" source="create-entities" target="truck-process" edge="1">
                    <mxGeometry width="50" height="50" relative="1" as="geometry">
                        <mxPoint x="440" y="280" as="sourcePoint"/>
                        <mxPoint x="340" y="480" as="targetPoint"/>
                        <Array as="points">
                            <mxPoint x="340" y="280"/>
                        </Array>
                    </mxGeometry>
                </mxCell>
                <mxCell id="arrow-setup-demand" value="" style="endArrow=classic;html=1;rounded=0;strokeWidth=2;strokeColor=#333333;edgeStyle=orthogonalEdgeStyle;" parent="1" source="create-entities" target="demand-process" edge="1">
                    <mxGeometry width="50" height="50" relative="1" as="geometry">
                        <mxPoint x="760" y="280" as="sourcePoint"/>
                        <mxPoint x="860" y="480" as="targetPoint"/>
                        <Array as="points">
                            <mxPoint x="860" y="280"/>
                        </Array>
                    </mxGeometry>
                </mxCell>
                <mxCell id="arrow-setup-monitor" value="" style="endArrow=classic;html=1;rounded=0;strokeWidth=2;strokeColor=#333333;edgeStyle=orthogonalEdgeStyle;" parent="1" source="create-entities" target="monitor-process" edge="1">
                    <mxGeometry width="50" height="50" relative="1" as="geometry">
                        <mxPoint x="600" y="300" as="sourcePoint"/>
                        <mxPoint x="600" y="630" as="targetPoint"/>
                    </mxGeometry>
                </mxCell>
                <mxCell id="arrow-truck-to-hub" value="Aumenta Inventario" style="endArrow=classic;html=1;rounded=0;strokeWidth=2;strokeColor=#2E7D32;" parent="1" source="truck-process" target="hub-resource" edge="1">
                    <mxGeometry width="50" height="50" relative="1" as="geometry">
                        <mxPoint x="430" y="540" as="sourcePoint"/>
                        <mxPoint x="510" y="540" as="targetPoint"/>
                    </mxGeometry>
                </mxCell>
                <mxCell id="arrow-demand-from-hub" value="Disminuye Inventario" style="endArrow=classic;html=1;rounded=0;strokeWidth=2;strokeColor=#C62828;" parent="1" source="hub-resource" target="demand-process" edge="1">
                    <mxGeometry width="50" height="50" relative="1" as="geometry">
                        <mxPoint x="690" y="540" as="sourcePoint"/>
                        <mxPoint x="770" y="540" as="targetPoint"/>
                    </mxGeometry>
                </mxCell>
                <mxCell id="arrow-monitor-to-hub" value="Lee Inventario" style="endArrow=classic;html=1;rounded=0;strokeWidth=2;strokeColor=#333333;dashed=1;" parent="1" source="monitor-process" target="hub-resource" edge="1">
                    <mxGeometry width="50" height="50" relative="1" as="geometry">
                        <mxPoint x="600" y="630" as="sourcePoint"/>
                        <mxPoint x="600" y="590" as="targetPoint"/>
                    </mxGeometry>
                </mxCell>
                <mxCell id="arrow-truck-to-supplier" value="Camiones van a cargar" style="endArrow=classic;html=1;rounded=0;strokeWidth=2;strokeColor=#333333;" parent="1" source="truck-process" target="supplier-resource" edge="1">
                    <mxGeometry width="50" height="50" relative="1" as="geometry">
                        <mxPoint x="340" y="480" as="sourcePoint"/>
                        <mxPoint x="340" y="410" as="targetPoint"/>
                    </mxGeometry>
                </mxCell>
                <mxCell id="arrow-setup-supplier" value="" style="endArrow=classic;html=1;rounded=0;strokeWidth=2;strokeColor=#333333;edgeStyle=orthogonalEdgeStyle;" parent="1" source="create-entities" target="supplier-resource" edge="1">
                    <mxGeometry width="50" height="50" relative="1" as="geometry">
                        <mxPoint x="440" y="280" as="sourcePoint"/>
                        <mxPoint x="340" y="350" as="targetPoint"/>
                        <Array as="points">
                            <mxPoint x="340" y="280"/>
                        </Array>
                    </mxGeometry>
                </mxCell>
                <mxCell id="run-sim" value="Ejecutar Simulaci贸n por un Tiempo T&lt;br&gt;env.run(until=T)" style="rounded=0;whiteSpace=wrap;html=1;fillColor=#B3D9E6;strokeColor=#7E9AA3;strokeWidth=2;shadow=1;" parent="1" vertex="1">
                    <mxGeometry x="480" y="660" width="240" height="60" as="geometry"/>
                </mxCell>
                <mxCell id="arrow-loop-to-run" value="" style="endArrow=classic;html=1;rounded=0;strokeWidth=2;strokeColor=#333333;" parent="1" source="sim-loop-container" target="run-sim" edge="1">
                    <mxGeometry width="50" height="50" relative="1" as="geometry">
                        <mxPoint x="600" y="760" as="sourcePoint"/>
                        <mxPoint x="600" y="790" as="targetPoint"/>
                    </mxGeometry>
                </mxCell>
                <mxCell id="collect-metrics" value="Recolectar y Procesar M茅tricas" style="rounded=0;whiteSpace=wrap;html=1;fillColor=#B3D9E6;strokeColor=#7E9AA3;strokeWidth=2;shadow=1;" parent="1" vertex="1">
                    <mxGeometry x="480" y="760" width="240" height="60" as="geometry"/>
                </mxCell>
                <mxCell id="arrow-run-to-collect" value="" style="endArrow=classic;html=1;rounded=0;strokeWidth=2;strokeColor=#333333;" parent="1" source="run-sim" target="collect-metrics" edge="1">
                    <mxGeometry width="50" height="50" relative="1" as="geometry">
                        <mxPoint x="600" y="730" as="sourcePoint"/>
                        <mxPoint x="600" y="770" as="targetPoint"/>
                    </mxGeometry>
                </mxCell>
                <mxCell id="db-events" value="Registro de Eventos" style="shape=datastore;whiteSpace=wrap;html=1;fillColor=#E6B3B3;strokeColor=#A37E7E;strokeWidth=2;shadow=1;" parent="1" vertex="1">
                    <mxGeometry x="260" y="860" width="160" height="80" as="geometry"/>
                </mxCell>
                <mxCell id="db-meta" value="Metadatos de Simulaci贸n" style="shape=datastore;whiteSpace=wrap;html=1;fillColor=#E6B3B3;strokeColor=#A37E7E;strokeWidth=2;shadow=1;" parent="1" vertex="1">
                    <mxGeometry x="520" y="860" width="160" height="80" as="geometry"/>
                </mxCell>
                <mxCell id="db-summary" value="Resumen de Resultados" style="shape=datastore;whiteSpace=wrap;html=1;fillColor=#E6B3B3;strokeColor=#A37E7E;strokeWidth=2;shadow=1;" parent="1" vertex="1">
                    <mxGeometry x="780" y="860" width="160" height="80" as="geometry"/>
                </mxCell>
                <mxCell id="arrow-collect-to-dbs" value="" style="endArrow=none;html=1;rounded=0;strokeWidth=2;strokeColor=#333333;" parent="1" source="collect-metrics" edge="1">
                    <mxGeometry width="50" height="50" relative="1" as="geometry">
                        <mxPoint x="600" y="830" as="sourcePoint"/>
                        <mxPoint x="600" y="860" as="targetPoint"/>
                    </mxGeometry>
                </mxCell>
                <mxCell id="arrow-db1" value="" style="endArrow=classic;html=1;rounded=0;strokeWidth=2;strokeColor=#333333;" parent="1" target="db-events" edge="1">
                    <mxGeometry width="50" height="50" relative="1" as="geometry">
                        <mxPoint x="600" y="860" as="sourcePoint"/>
                        <mxPoint x="340" y="850" as="targetPoint"/>
                    </mxGeometry>
                </mxCell>
                <mxCell id="arrow-db2" value="" style="endArrow=classic;html=1;rounded=0;strokeWidth=2;strokeColor=#333333;" parent="1" target="db-meta" edge="1">
                    <mxGeometry width="50" height="50" relative="1" as="geometry">
                        <mxPoint x="600" y="860" as="sourcePoint"/>
                        <mxPoint x="600" y="850" as="targetPoint"/>
                    </mxGeometry>
                </mxCell>
                <mxCell id="arrow-db3" value="" style="endArrow=classic;html=1;rounded=0;strokeWidth=2;strokeColor=#333333;" parent="1" target="db-summary" edge="1">
                    <mxGeometry width="50" height="50" relative="1" as="geometry">
                        <mxPoint x="600" y="860" as="sourcePoint"/>
                        <mxPoint x="860" y="850" as="targetPoint"/>
                    </mxGeometry>
                </mxCell>
                <mxCell id="end-node" value="FIN" style="ellipse;whiteSpace=wrap;html=1;fillColor=#9C2B2B;fontColor=#ffffff;strokeColor=#691D1D;strokeWidth=2;shadow=1;" parent="1" vertex="1">
                    <mxGeometry x="540" y="990" width="120" height="60" as="geometry"/>
                </mxCell>
                <mxCell id="arrow-dbs-to-end" value="" style="endArrow=classic;html=1;rounded=0;strokeWidth=2;strokeColor=#333333;" parent="1" source="db-meta" edge="1">
                    <mxGeometry width="50" height="50" relative="1" as="geometry">
                        <mxPoint x="600" y="950" as="sourcePoint"/>
                        <mxPoint x="600" y="980" as="targetPoint"/>
                    </mxGeometry>
                </mxCell>
            </root>
        </mxGraphModel>
    </diagram>
</mxfile>